<?xml version="1.0" standalone="no"?>
<!DOCTYPE svg PUBLIC "-//W3C//DTD SVG 20010904//EN"
 "http://www.w3.org/TR/2001/REC-SVG-20010904/DTD/svg10.dtd">
<svg version="1.0" xmlns="http://www.w3.org/2000/svg"
 width="300.000000pt" height="300.000000pt" viewBox="0 0 300.000000 300.000000"
 preserveAspectRatio="xMidYMid meet">
<metadata>
Created by potrace 1.10, written by Peter Selinger 2001-2011
</metadata>
<g transform="translate(0.000000,300.000000) scale(0.100000,-0.100000)"
fill="#224870" stroke="none">
<path d="M9 2990 c12 -7 13 -11 1 -24 -7 -9 -10 -19 -7 -22 3 -3 11 3 18 14 7
11 18 18 25 15 9 -3 8 -12 -4 -34 -10 -16 -23 -27 -30 -24 -6 2 -12 -2 -12
-11 0 -11 4 -12 18 -5 22 13 72 55 53 45 -9 -5 -12 -3 -7 4 4 7 13 12 19 12 7
0 18 9 25 20 15 25 4 26 -15 3 -14 -17 -14 -17 -9 1 6 16 4 17 -10 6 -10 -9
-18 -10 -22 -4 -4 6 -18 11 -32 12 -18 1 -21 -1 -11 -8z"/>
<path d="M510 2994 c0 -6 7 -19 15 -30 8 -10 14 -14 14 -9 0 6 -6 19 -14 29
-8 11 -15 15 -15 10z"/>
<path d="M577 2976 c4 -18 0 -25 -13 -28 -12 -2 4 -13 45 -32 54 -24 71 -27
116 -21 30 3 59 13 67 22 12 15 11 15 -9 5 -31 -17 -64 -15 -79 6 -11 14 -9
21 14 45 14 15 21 27 15 27 -6 0 -20 -11 -30 -24 -17 -24 -21 -24 -65 -14 -28
7 -48 17 -48 25 0 7 -4 13 -9 13 -4 0 -6 -11 -4 -24z m70 -42 c-3 -3 -12 -4
-19 -1 -8 3 -5 6 6 6 11 1 17 -2 13 -5z"/>
<path d="M843 2988 c2 -7 -5 -23 -16 -35 -11 -13 -16 -23 -9 -23 6 0 20 13 31
29 18 25 19 30 5 35 -10 4 -14 2 -11 -6z"/>
<path d="M1055 2953 c9 -66 28 -93 65 -93 17 0 30 4 30 10 0 5 -13 7 -30 4
-25 -6 -31 -3 -40 20 -5 15 -10 45 -10 67 0 22 -5 39 -11 39 -8 0 -9 -15 -4
-47z"/>
<path d="M1130 2973 c0 -35 31 -87 65 -109 54 -36 150 -11 180 46 21 41 20 92
-2 88 -9 -2 -18 -9 -21 -17 -3 -8 0 -11 7 -7 7 5 11 -1 11 -13 0 -12 -5 -21
-12 -21 -6 0 -9 -3 -5 -6 3 -4 -7 -19 -23 -35 -50 -51 -131 -34 -165 34 -8 16
-15 38 -15 49 0 10 -4 18 -10 18 -5 0 -10 -12 -10 -27z"/>
<path d="M2100 2972 c0 -32 41 -62 83 -62 30 0 67 42 67 74 -1 17 -4 14 -15
-11 -7 -17 -23 -36 -34 -43 -27 -14 -27 -2 0 26 22 23 19 44 -6 44 -9 0 -12
-8 -10 -23 6 -29 -29 -54 -51 -36 -8 6 -14 22 -14 35 0 13 -4 24 -10 24 -5 0
-10 -13 -10 -28z"/>
<path d="M2140 2975 c0 -14 5 -25 10 -25 6 0 10 11 10 25 0 14 -4 25 -10 25
-5 0 -10 -11 -10 -25z"/>
<path d="M2765 2969 c9 -16 37 -43 62 -59 40 -26 56 -30 112 -29 42 1 59 4 46
9 -18 7 -19 8 -2 15 9 4 17 11 17 16 0 4 -20 -1 -45 -12 -42 -19 -95 -18 -95
1 0 4 -13 13 -29 20 -16 6 -38 21 -48 32 l-18 21 34 -18 c65 -33 201 -16 201
26 0 6 -12 1 -26 -10 -35 -27 -113 -28 -173 -1 -55 25 -54 26 -36 -11z"/>
<path d="M280 2924 c-34 -14 -34 -14 -5 -9 17 2 48 8 70 13 l40 10 -35 0 c-19
0 -51 -6 -70 -14z"/>
<path d="M187 2923 c-4 -3 -7 -15 -7 -25 0 -10 -5 -18 -10 -18 -18 0 -43 -66
-36 -94 9 -38 41 -66 75 -66 17 0 61 12 99 26 66 24 72 25 100 10 28 -14 34
-14 90 7 63 23 95 58 72 81 -7 7 -10 7 -10 -1 0 -6 -21 -18 -47 -27 l-48 -17
-115 53 c-63 29 -119 58 -123 65 -9 14 -30 17 -40 6z m33 -17 c0 -2 -7 -7 -16
-10 -8 -3 -12 -2 -9 4 6 10 25 14 25 6z m160 -86 c36 -16 70 -30 77 -30 7 0
13 -4 13 -9 0 -16 -24 -18 -55 -6 -38 16 -91 11 -114 -9 -20 -18 -41 -22 -23
-4 18 18 15 79 -5 101 -17 18 -17 18 12 3 17 -8 59 -29 95 -46z m-120 30 c28
-28 25 -64 -7 -89 -60 -48 -128 34 -73 89 11 11 29 20 40 20 11 0 29 -9 40
-20z"/>
<path d="M311 2814 c0 -11 3 -14 6 -6 3 7 2 16 -1 19 -3 4 -6 -2 -5 -13z"/>
<path d="M347 2903 l-37 -16 25 -13 c20 -10 31 -10 65 3 22 9 40 20 40 24 0 5
-6 6 -14 3 -8 -3 -17 -1 -21 5 -8 13 -10 13 -58 -6z m38 -13 c-3 -5 -14 -10
-23 -9 -14 0 -13 2 3 9 27 11 27 11 20 0z"/>
<path d="M1410 2911 c0 -7 -3 -10 -8 -7 -4 2 -12 -7 -19 -20 -10 -21 -9 -24 7
-24 17 0 38 46 25 58 -3 3 -5 0 -5 -7z"/>
<path d="M1785 2904 c-47 -24 -67 -52 -73 -99 -6 -59 3 -88 40 -131 60 -68
143 -84 197 -38 52 43 34 106 -49 172 -46 38 -51 65 -14 89 24 15 29 15 53 2
37 -21 52 -56 46 -109 -4 -33 -3 -39 4 -25 5 11 10 37 10 58 2 74 -88 123
-141 78 -33 -27 -22 -66 29 -108 25 -21 52 -53 60 -71 12 -30 12 -37 -2 -58
-28 -42 -86 -43 -153 -2 -37 23 -59 59 -68 115 -5 35 -2 44 27 78 19 21 47 44
64 51 16 7 23 13 15 14 -8 0 -28 -7 -45 -16z"/>
<path d="M450 2891 c0 -8 25 -23 42 -25 3 -1 10 -4 14 -8 4 -5 17 -8 28 -8 15
1 8 8 -24 25 -50 27 -60 29 -60 16z"/>
<path d="M2380 2879 c-11 -20 -11 -20 14 -4 24 16 28 16 51 1 20 -13 23 -20
16 -35 -7 -13 -6 -18 4 -18 18 0 16 37 -3 60 -21 24 -69 22 -82 -4z"/>
<path d="M2360 2843 c0 -4 10 -14 23 -22 12 -8 32 -21 45 -29 12 -8 22 -10 22
-6 0 5 -17 20 -38 34 -46 31 -52 34 -52 23z"/>
<path d="M2260 2779 c-98 -76 -100 -78 -100 -93 0 -15 23 -33 92 -74 l36 -22
47 82 c26 46 50 87 53 92 3 5 -1 6 -8 1 -10 -6 -12 -4 -6 10 5 15 4 16 -9 5
-10 -8 -15 -9 -15 -1 0 18 4 26 13 23 5 -1 6 2 2 8 -5 8 -11 8 -21 -1 -7 -6
-12 -15 -9 -19 3 -5 0 -12 -6 -16 -8 -4 -9 -3 -5 4 4 7 3 12 -3 12 -16 0 -22
-18 -9 -23 8 -3 -9 -27 -44 -63 -32 -32 -61 -54 -65 -50 -4 4 16 30 45 57 67
61 55 65 -15 4 -55 -48 -63 -52 -63 -32 0 6 24 29 53 50 72 52 124 97 112 96
-5 0 -39 -23 -75 -50z m43 -83 c-41 -55 -73 -82 -73 -60 0 10 113 135 117 130
3 -2 -17 -34 -44 -70z m22 -15 c-25 -39 -51 -71 -56 -71 -12 0 -8 7 49 88 24
35 46 61 49 59 2 -3 -17 -37 -42 -76z"/>
<path d="M1261 2761 c-21 -16 -23 -24 -19 -70 3 -28 8 -54 11 -57 3 -3 21 -1
40 5 52 17 86 1 85 -41 -1 -60 2 -78 11 -78 5 0 8 8 7 18 -1 15 10 17 83 19
l83 1 -5 -38 c-5 -38 -4 -38 19 -28 20 9 24 18 24 56 0 38 -2 43 -17 36 -10
-4 -55 -9 -100 -11 l-83 -3 0 40 c0 33 4 42 29 54 16 9 46 15 67 15 79 -2 97
5 29 10 -56 5 -76 2 -100 -11 -21 -13 -52 -18 -102 -18 l-73 0 0 44 c0 54 7
58 120 66 l85 7 -85 1 c-69 1 -90 -2 -109 -17z"/>
<path d="M1405 2740 c-3 -5 -2 -10 4 -10 5 0 13 5 16 10 3 6 2 10 -4 10 -5 0
-13 -4 -16 -10z"/>
<path d="M1451 2734 c0 -11 3 -14 6 -6 3 7 2 16 -1 19 -3 4 -6 -2 -5 -13z"/>
<path d="M2364 2690 c-15 -33 -32 -60 -37 -60 -4 0 -5 -4 -2 -10 3 -5 2 -10
-3 -10 -5 0 -9 -7 -9 -15 0 -8 3 -15 6 -15 8 0 82 162 77 167 -2 2 -16 -24
-32 -57z"/>
<path d="M1304 2719 c-17 -18 -17 -21 -1 -36 16 -16 17 -16 17 10 0 18 4 26
11 21 6 -3 9 -14 6 -24 -3 -13 0 -17 9 -13 20 8 17 41 -5 52 -14 8 -23 6 -37
-10z"/>
<path d="M2389 2681 c-7 -23 -16 -41 -21 -41 -5 0 -7 -4 -4 -9 4 -5 1 -22 -4
-37 -6 -15 -9 -29 -6 -31 2 -2 16 31 30 73 14 43 24 79 22 82 -3 2 -10 -14
-17 -37z"/>
<path d="M1905 2670 c-16 -11 -25 -20 -19 -20 11 0 64 39 54 40 -3 0 -18 -9
-35 -20z"/>
<path d="M2750 2680 c0 -5 6 -10 13 -10 7 0 30 -9 52 -21 27 -14 35 -16 25 -5
-20 21 -90 49 -90 36z"/>
<path d="M2659 2671 c-43 -14 -69 -31 -69 -47 0 -16 26 -13 98 13 72 25 46 56
-29 34z"/>
<path d="M1564 2652 c-6 -4 -8 -16 -4 -27 6 -17 7 -16 12 8 3 15 5 27 4 27 0
0 -6 -4 -12 -8z"/>
<path d="M1730 2656 c0 -2 8 -10 18 -17 15 -13 16 -12 3 4 -13 16 -21 21 -21
13z"/>
<path d="M674 2635 c-10 -8 -14 -14 -9 -15 15 0 40 18 34 24 -3 3 -14 -1 -25
-9z"/>
<path d="M775 2643 c39 -6 90 -45 121 -94 33 -52 39 -90 22 -124 l-15 -27 -33
58 c-38 68 -127 184 -141 184 -6 0 13 -28 41 -62 27 -35 66 -93 85 -129 l35
-67 -26 -16 c-24 -17 -26 -16 -47 10 -43 54 -140 189 -150 212 -9 20 -27 31
-27 16 0 -9 79 -124 133 -193 54 -70 52 -81 -14 -81 -34 0 -41 6 -92 73 -30
39 -62 87 -72 105 -9 19 -19 31 -22 28 -4 -3 -1 -17 7 -30 11 -22 10 -28 -9
-52 -11 -15 -21 -36 -20 -48 0 -17 3 -15 15 11 19 44 34 50 54 22 18 -22 17
-24 -1 -47 -12 -16 -19 -39 -18 -66 1 -26 3 -32 6 -16 7 44 24 90 33 90 5 0
22 -18 39 -39 31 -38 31 -40 14 -68 -28 -50 -15 -61 65 -52 39 4 84 15 100 23
44 23 88 71 100 108 9 27 9 29 -1 14 -28 -44 -84 -100 -114 -113 -44 -18 -143
-18 -143 1 0 22 21 34 73 41 60 9 134 58 159 105 10 19 23 34 28 33 15 -4 12
2 -20 51 -17 24 -29 49 -28 55 2 5 -21 28 -51 50 -38 30 -62 41 -85 40 l-31
-2 30 -4z"/>
<path d="M1457 2633 c-11 -10 -8 -53 3 -53 6 0 10 11 10 25 0 34 18 32 22 -2
4 -23 6 -25 12 -10 5 9 6 24 2 32 -5 15 -37 21 -49 8z"/>
<path d="M1601 2624 c0 -11 3 -14 6 -6 3 7 2 16 -1 19 -3 4 -6 -2 -5 -13z"/>
<path d="M2683 2623 c-28 -14 -33 -22 -33 -53 0 -33 4 -38 43 -57 42 -20 44
-20 78 -3 32 17 34 21 31 59 -3 34 -10 44 -33 56 -35 18 -45 18 -86 -2z m67
-18 c41 -21 41 -58 1 -75 -22 -9 -34 -9 -50 0 -26 14 -29 65 -3 79 22 13 18
14 52 -4z"/>
<path d="M1120 2612 c-30 -15 -43 -52 -30 -86 7 -17 9 -13 9 18 1 51 22 65 94
66 l57 0 0 -47 c0 -27 4 -53 8 -59 4 -6 37 -14 75 -17 52 -5 67 -3 67 8 0 10
-16 13 -62 12 l-63 -2 3 56 3 55 -33 3 c-81 7 -102 6 -128 -7z"/>
<path d="M2544 2591 c-25 -39 -29 -54 -29 -116 0 -70 15 -112 36 -99 15 9 10
118 -5 140 -14 19 -12 25 10 58 14 20 24 42 21 49 -2 6 -17 -8 -33 -32z"/>
<path d="M2401 2604 c0 -11 3 -14 6 -6 3 7 2 16 -1 19 -3 4 -6 -2 -5 -13z"/>
<path d="M2816 2563 c9 -63 36 -103 67 -97 22 4 22 4 1 -7 -28 -14 -54 -71
-54 -116 0 -36 0 -36 21 -17 41 37 58 87 55 158 -3 78 -27 119 -70 124 -27 3
-27 3 -20 -45z m44 2 c0 -8 4 -15 8 -15 4 0 9 -11 10 -25 1 -14 -3 -25 -8 -25
-6 0 -10 7 -10 16 0 8 -4 12 -10 9 -6 -4 -10 7 -10 24 0 17 5 31 10 31 6 0 10
-7 10 -15z"/>
<path d="M595 2580 c-27 -30 -12 -34 15 -5 13 14 19 25 13 25 -5 0 -18 -9 -28
-20z"/>
<path d="M1144 2556 c-7 -19 1 -46 14 -46 5 0 7 11 4 25 -3 19 0 25 13 25 13
0 16 -6 12 -25 -3 -16 0 -24 7 -22 6 2 11 15 11 28 0 19 -6 25 -28 27 -18 2
-29 -2 -33 -12z"/>
<path d="M2606 2506 c-22 -18 -29 -34 -32 -68 -3 -42 -2 -45 39 -69 l42 -25
37 21 c35 19 38 23 38 67 0 45 -2 47 -46 72 -26 14 -47 26 -48 26 0 -1 -14
-11 -30 -24z m82 -28 c18 -18 15 -85 -4 -92 -42 -16 -84 7 -88 49 -5 43 61 74
92 43z"/>
<path d="M168 2499 c-21 -11 -38 -21 -38 -23 0 -2 7 -17 15 -32 8 -16 15 -39
15 -52 0 -60 44 -112 94 -112 14 0 69 50 62 57 -2 2 -15 -7 -29 -21 -22 -22
-30 -24 -50 -15 -28 13 -57 67 -57 107 0 16 -5 33 -12 40 -17 17 7 40 50 48
31 6 32 5 32 -25 0 -17 4 -31 8 -31 4 0 13 -20 20 -45 7 -25 16 -45 22 -45 14
0 12 32 -5 73 -8 20 -15 50 -15 67 0 28 -2 30 -37 30 -21 -1 -55 -10 -75 -21z"/>
<path d="M300 2486 c0 -13 7 -40 15 -59 8 -20 15 -54 15 -76 0 -52 -47 -96
-94 -87 -51 10 -72 31 -85 83 -21 83 -26 96 -38 100 -12 4 -28 -66 -24 -107
14 -123 170 -176 260 -88 63 62 65 151 4 219 -41 45 -53 49 -53 15z m50 -53
c0 -29 -2 -29 -19 5 -10 18 -9 22 4 22 10 0 15 -9 15 -27z m-230 -75 c0 -23
-3 -29 -9 -19 -8 12 -4 51 5 51 2 0 4 -15 4 -32z m255 10 c-1 -13 -3 -32 -4
-42 0 -11 -19 -36 -41 -58 -34 -32 -48 -38 -83 -38 -23 0 -49 5 -57 10 -11 8
-5 9 20 5 19 -3 43 -2 55 4 11 5 27 12 36 14 19 6 44 52 54 97 8 35 23 41 20
8z m-235 -58 c0 -3 9 -16 20 -28 l21 -22 -21 0 c-11 0 -20 5 -20 12 0 6 -7 19
-15 28 -13 15 -13 17 0 17 8 0 15 -3 15 -7z"/>
<path d="M1138 2502 c-68 -6 -40 -22 37 -22 41 0 75 4 75 9 0 10 -59 17 -112
13z"/>
<path d="M547 2493 c-4 -3 -7 -16 -6 -27 0 -19 1 -19 10 3 10 24 8 36 -4 24z"/>
<path d="M1958 2484 c-3 -3 -43 -8 -88 -12 -72 -6 -85 -10 -98 -31 -16 -23
-15 -23 6 -17 18 6 30 0 57 -30 23 -25 35 -32 35 -22 0 9 -13 28 -30 41 -34
29 -37 35 -14 33 26 -2 74 -50 60 -59 -6 -6 -3 -6 8 -3 11 4 39 -1 63 -11 46
-19 58 -36 21 -29 -13 3 -32 5 -43 5 -17 1 -17 3 -5 11 9 6 10 10 3 10 -6 0
-14 -4 -18 -9 -12 -21 -63 -8 -85 20 -11 16 -29 29 -40 29 -26 0 -35 -36 -16
-65 18 -27 36 -31 67 -15 13 7 19 7 19 0 0 -5 9 -10 20 -10 11 0 20 4 20 8 0
5 26 5 58 0 89 -14 162 -17 162 -8 0 4 23 7 50 6 61 -3 102 23 84 52 -16 25
-103 47 -126 33 -23 -14 -59 -6 -121 27 -44 24 -47 27 -31 39 14 11 15 13 3
13 -9 0 -18 -3 -21 -6z m27 -59 c65 -39 113 -52 141 -37 22 10 104 -7 106 -23
1 -5 -11 -13 -28 -16 -33 -7 -138 -9 -111 -2 29 8 8 23 -32 23 -39 0 -93 16
-156 46 -39 18 -44 30 -17 37 33 9 40 7 97 -28z m-168 -76 c25 -2 25 -2 5 -6
-27 -5 -52 12 -51 36 0 11 3 9 9 -6 6 -16 18 -23 37 -24z m-2 30 c11 -17 -1
-21 -15 -4 -8 9 -8 15 -2 15 6 0 14 -5 17 -11z m248 -36 c-7 -2 -21 -2 -30 0
-10 3 -4 5 12 5 17 0 24 -2 18 -5z"/>
<path d="M2020 2465 c-8 -9 -8 -15 -2 -15 12 0 26 19 19 26 -2 2 -10 -2 -17
-11z"/>
<path d="M2796 2434 c-16 -19 -26 -37 -23 -40 8 -8 57 46 57 62 0 18 0 18 -34
-22z"/>
<path d="M55 2440 c-3 -5 -1 -10 4 -10 6 0 11 5 11 10 0 6 -2 10 -4 10 -3 0
-8 -4 -11 -10z"/>
<path d="M2045 2440 c-3 -5 -1 -10 4 -10 6 0 11 5 11 10 0 6 -2 10 -4 10 -3 0
-8 -4 -11 -10z"/>
<path d="M2080 2429 c0 -5 5 -7 10 -4 6 3 10 8 10 11 0 2 -4 4 -10 4 -5 0 -10
-5 -10 -11z"/>
<path d="M550 2367 c0 -7 7 -22 15 -33 13 -17 14 -16 4 14 -11 33 -19 41 -19
19z"/>
<path d="M2697 2356 c-33 -19 -37 -24 -31 -50 5 -24 4 -28 -10 -23 -10 4 -15
3 -12 -2 3 -4 32 -7 64 -7 71 2 108 22 107 60 -2 32 -2 32 -45 39 -25 3 -46
-2 -73 -17z m82 -15 c26 -17 -6 -43 -47 -39 -35 3 -59 28 -28 28 9 0 16 5 16
10 0 12 40 13 59 1z"/>
<path d="M2560 2337 c22 -23 29 -25 55 -18 l30 9 -34 1 c-19 1 -44 9 -55 18
-13 11 -11 7 4 -10z"/>
<path d="M1480 2340 c12 -9 9 -10 -13 -5 -19 4 -43 -1 -70 -14 -122 -59 -196
-178 -181 -288 5 -35 11 -43 37 -52 85 -30 192 -2 272 70 68 62 95 117 95 191
0 78 -18 97 -95 104 -47 4 -57 3 -45 -6z m-40 -20 c-8 -5 -19 -10 -25 -10 -5
0 -3 5 5 10 8 5 20 10 25 10 6 0 3 -5 -5 -10z m141 0 c17 0 18 -7 15 -79 -3
-81 -9 -95 -80 -178 -24 -29 -104 -62 -163 -68 l-48 -6 61 21 c90 29 153 76
191 140 18 30 33 59 33 64 0 6 -15 -14 -32 -44 -54 -90 -155 -150 -278 -166
l-51 -7 7 39 c15 85 46 148 100 201 49 49 65 75 22 36 -10 -9 -18 -12 -18 -7
0 5 14 18 31 28 18 11 29 14 25 7 -9 -14 0 -14 26 0 24 13 108 28 126 23 8 -2
22 -4 33 -4z m-262 -87 c-41 -46 -50 -60 -76 -120 -13 -32 -21 -44 -18 -28 14
64 82 175 108 175 6 0 0 -12 -14 -27z"/>
<path d="M1465 2278 c-16 -12 -34 -28 -38 -35 -5 -8 -12 -11 -18 -8 -5 4 -9 0
-9 -7 0 -7 9 -19 20 -26 11 -7 20 -17 20 -24 0 -6 -10 -2 -23 10 -23 22 -47
29 -47 14 0 -4 9 -13 20 -20 11 -7 20 -17 20 -24 0 -6 -13 0 -28 15 -31 30
-44 34 -36 12 4 -9 0 -15 -10 -15 -9 0 -15 -6 -13 -12 1 -7 -4 -12 -10 -10 -7
1 -13 -4 -13 -12 0 -8 -6 -16 -12 -19 -9 -3 -4 -14 15 -32 16 -15 31 -24 35
-20 4 4 -4 15 -17 26 -13 11 -21 23 -17 27 4 4 17 -4 28 -18 18 -22 21 -23 29
-8 5 10 16 15 24 11 10 -3 13 -1 10 9 -3 8 3 23 15 33 11 10 20 15 20 12 0 -4
8 1 19 12 10 10 27 24 37 30 20 11 18 14 -26 41 -8 4 -11 12 -7 16 4 4 18 -3
31 -15 22 -21 27 -22 45 -9 20 14 20 14 -5 41 -14 15 -26 27 -27 27 -1 0 -15
-10 -32 -22z m50 -18 c10 -11 14 -20 9 -20 -12 1 -44 25 -44 34 0 12 17 6 35
-14z m-50 -58 c-6 -7 -35 18 -35 31 0 5 9 2 20 -8 11 -10 18 -20 15 -23z m-85
-47 c7 -9 10 -18 7 -22 -8 -7 -37 15 -37 28 0 14 16 11 30 -6z m-20 -43 c0
-13 -3 -12 -20 3 -11 10 -17 22 -14 27 8 12 34 -11 34 -30z"/>
<path d="M755 2290 c-35 -17 -36 -19 -10 -13 17 3 37 12 45 19 18 18 14 17
-35 -6z"/>
<path d="M2605 2300 c3 -5 11 -10 16 -10 6 0 7 5 4 10 -3 6 -11 10 -16 10 -6
0 -7 -4 -4 -10z"/>
<path d="M625 2270 c3 -5 16 -10 28 -10 18 0 19 2 7 10 -20 13 -43 13 -35 0z"/>
<path d="M2240 2251 c0 -5 -13 -11 -30 -14 -23 -5 -30 -12 -30 -30 0 -23 43
-77 61 -77 5 0 24 -14 44 -31 29 -26 35 -38 33 -66 -1 -19 3 -38 11 -42 7 -5
12 -12 11 -17 -1 -5 3 -10 9 -12 10 -3 7 35 -4 74 -6 19 33 72 64 88 35 19 71
62 71 87 0 20 -28 39 -47 32 -7 -3 -13 0 -13 5 0 5 -40 10 -90 10 -49 1 -90
-2 -90 -7z m43 -53 c-4 -36 -1 -45 16 -56 13 -7 21 -8 21 -2 0 5 -4 10 -9 10
-5 0 -8 19 -7 43 1 40 3 42 34 45 30 3 32 1 33 -30 l1 -33 7 30 c6 27 27 40
25 15 -1 -5 -2 -23 -2 -39 -1 -17 -14 -43 -28 -58 -14 -15 -30 -34 -35 -43 -8
-13 -10 -13 -20 3 -5 9 -19 26 -30 36 -37 34 -51 121 -20 121 16 0 18 -6 14
-42z m-47 18 c3 -8 4 -27 2 -42 l-3 -28 -18 28 c-19 28 -17 56 3 56 6 0 13 -6
16 -14z m222 -7 c2 -9 -9 -30 -23 -45 l-27 -29 6 34 c3 18 6 40 6 48 0 20 34
12 38 -8z"/>
<path d="M2141 2184 c0 -11 3 -14 6 -6 3 7 2 16 -1 19 -3 4 -6 -2 -5 -13z"/>
<path d="M1783 2085 c-18 -8 -33 -17 -33 -21 0 -3 8 -3 18 1 9 4 40 13 67 20
47 12 48 13 15 14 -19 0 -50 -6 -67 -14z"/>
<path d="M824 2079 c-39 -11 -59 -33 -77 -87 -24 -70 -1 -135 67 -187 62 -47
127 -44 162 10 20 30 6 85 -36 141 -31 42 -38 72 -18 92 20 20 53 13 82 -17
29 -30 29 -55 -1 -115 -11 -21 -12 -27 -2 -24 14 5 37 61 38 95 1 32 -44 80
-81 85 -24 4 -37 -1 -56 -19 -28 -28 -25 -42 24 -114 54 -80 43 -142 -25 -142
-47 0 -88 22 -117 64 -21 31 -27 50 -26 94 0 31 6 63 13 71 18 21 67 46 109
55 34 6 34 7 5 7 -16 0 -44 -4 -61 -9z"/>
<path d="M1886 2074 c-6 -14 -63 -42 -108 -51 -23 -4 -28 -2 -28 13 -1 13 -5
9 -14 -12 -8 -17 -28 -47 -46 -67 -18 -20 -27 -37 -22 -37 6 0 13 6 16 13 11
27 36 -27 36 -79 0 -89 -40 -81 -59 11 l-10 50 4 -51 c3 -47 9 -57 58 -107 56
-57 102 -78 162 -76 19 1 23 3 10 6 -11 2 -30 6 -42 9 -16 3 -23 12 -23 27 0
33 62 66 113 60 33 -5 37 -8 37 -33 0 -19 -9 -35 -27 -50 -28 -21 -27 -21 17
1 25 12 39 24 33 26 -19 7 -16 49 7 94 23 44 47 59 61 38 13 -21 11 65 -3 96
-6 14 -14 25 -18 25 -5 0 -7 8 -6 17 3 35 -136 108 -148 77z m45 -41 c24 -15
29 -24 29 -58 0 -37 -3 -42 -35 -57 -37 -16 -45 -14 -124 29 -2 1 0 18 3 38 5
27 14 39 39 49 43 19 54 19 88 -1z m85 -28 c4 -9 2 -34 -4 -58 -10 -37 -9 -40
3 -23 8 10 16 24 19 30 7 17 26 -15 26 -45 0 -19 -6 -28 -22 -32 -12 -4 -23
-5 -23 -4 -1 1 -11 16 -23 34 -14 19 -22 46 -22 72 0 35 3 41 20 41 11 0 23
-7 26 -15z m-240 -30 c3 -17 -35 -47 -48 -39 -13 8 -10 18 13 43 22 23 31 22
35 -4z m108 -99 c15 -56 7 -80 -35 -103 l-41 -22 -39 26 c-36 24 -39 29 -39
72 0 41 4 48 33 67 l32 21 42 -20 c23 -11 44 -30 47 -41z m95 2 c10 -27 4 -53
-17 -70 -11 -10 -16 -10 -19 -1 -2 7 -11 9 -19 6 -18 -7 -20 57 -2 75 19 19
48 14 57 -10z m-204 -136 c-3 -3 -11 0 -18 7 -9 10 -8 11 6 5 10 -3 15 -9 12
-12z"/>
<path d="M2645 2037 c-30 -29 -33 -34 -12 -22 15 10 27 21 27 25 0 8 45 30 62
30 7 0 0 -13 -15 -28 -33 -35 -33 -38 -2 -37 14 1 39 15 56 31 26 25 38 29 95
30 71 2 73 -4 17 -51 -33 -27 -34 -27 -171 -24 -76 2 -142 0 -148 -3 -17 -11
-16 -118 1 -145 39 -59 99 -48 180 36 41 42 55 51 84 51 49 0 121 69 121 116
l0 32 -127 -1 -128 -1 -40 -39z m95 -2 c-7 -8 -17 -15 -22 -15 -6 0 -5 7 2 15
7 8 17 15 22 15 6 0 5 -7 -2 -15z m-153 -59 c0 -8 -6 -12 -14 -9 -7 3 -10 9
-7 14 8 14 21 11 21 -5z m266 -13 c-3 -7 -17 -13 -33 -13 -38 0 -89 -28 -102
-56 -13 -28 -28 -32 -22 -6 6 23 -17 64 -43 77 -17 9 4 11 92 11 90 1 112 -2
108 -13z m-193 -21 c14 -11 23 -29 23 -47 0 -29 -32 -65 -58 -65 -19 0 -52 32
-59 56 -8 26 27 74 54 74 10 0 28 -8 40 -18z"/>
<path d="M1686 1998 l-18 -33 21 25 c18 22 26 40 18 40 -1 0 -11 -15 -21 -32z"/>
<path d="M195 2005 c-29 -14 -29 -15 25 -9 30 3 67 7 83 10 22 5 34 -1 59 -28
40 -43 57 -84 65 -158 5 -56 4 -60 -14 -60 -16 0 -22 9 -28 36 -12 64 -157
184 -223 184 -29 0 -66 -46 -92 -114 -16 -42 6 -29 29 17 11 23 29 53 39 66
l19 24 54 -25 c76 -35 148 -103 159 -151 l8 -38 -61 7 c-88 9 -194 31 -226 47
-28 14 -28 14 -29 -22 -2 -52 41 -136 78 -153 17 -7 30 -16 30 -19 0 -3 24 -2
53 3 75 14 129 46 150 91 19 38 47 50 47 20 -1 -57 -94 -152 -130 -133 -24 13
-111 13 -90 1 8 -6 35 -13 61 -16 86 -12 211 66 212 132 0 15 7 34 16 41 14
12 14 13 -3 8 -14 -5 -17 -2 -12 10 3 8 6 21 7 27 0 7 4 3 9 -8 6 -14 8 -7 6
25 -4 66 -44 138 -90 162 -14 8 -11 -1 12 -30 18 -22 32 -51 32 -66 0 -18 4
-24 15 -20 18 7 19 -2 3 -61 -16 -59 -28 -57 -28 3 0 66 -24 132 -64 176 -32
34 -37 36 -92 36 -33 -1 -72 -7 -89 -15z m-30 -230 c34 -8 93 -17 133 -21 43
-4 72 -11 72 -18 0 -44 -86 -95 -158 -96 -67 0 -95 20 -116 82 -9 29 -20 59
-23 67 -4 11 -1 12 13 7 11 -4 46 -14 79 -21z m295 -52 c-1 -19 -14 -41 -42
-68 -36 -35 -38 -36 -20 -9 11 16 24 43 28 60 9 36 13 44 25 44 5 0 9 -12 9
-27z"/>
<path d="M2306 1981 c-4 -7 -5 -15 -2 -18 9 -9 19 4 14 18 -4 11 -6 11 -12 0z"/>
<path d="M2258 1915 l-4 -35 76 0 76 0 -4 35 -4 35 -68 0 -68 0 -4 -35z m102
5 c0 -16 -7 -20 -35 -20 -22 0 -35 5 -35 13 0 20 10 27 42 27 21 0 28 -5 28
-20z"/>
<path d="M905 1829 c-35 -18 -36 -19 -10 -14 17 3 37 13 45 21 18 18 14 17
-35 -7z"/>
<path d="M2051 1832 c-1 -7 -12 -30 -26 -52 -14 -22 -22 -40 -17 -40 13 0 54
79 49 93 -4 9 -6 9 -6 -1z"/>
<path d="M1253 1725 c-73 -37 -107 -89 -111 -174 -3 -59 0 -72 27 -118 69
-118 219 -147 317 -61 126 111 86 307 -75 364 -55 20 -102 16 -158 -11z m174
-26 c33 -16 41 -24 33 -34 -15 -18 16 -43 33 -26 9 10 8 11 -5 6 -19 -8 -23 2
-9 23 13 21 29 -7 26 -45 -1 -26 1 -31 11 -22 10 9 15 7 20 -5 9 -23 0 -30
-32 -22 -14 4 -24 10 -21 13 10 10 -13 44 -25 37 -6 -4 -8 -3 -5 3 14 22 -42
56 -98 61 -47 4 -61 1 -94 -21 -74 -49 -90 -151 -34 -217 65 -78 162 -81 232
-7 26 28 21 47 -12 47 -15 0 -18 -3 -9 -8 22 -15 -32 -54 -82 -59 -53 -6 -86
11 -116 60 -49 80 9 177 107 177 43 0 91 -26 75 -42 -6 -6 -17 -6 -30 1 -11 6
-36 11 -55 11 -44 0 -87 -46 -87 -92 0 -43 48 -88 94 -88 45 0 90 37 91 76 1
18 8 30 18 32 20 4 23 -24 5 -31 -7 -2 1 -6 19 -9 31 -4 32 -4 18 22 -13 26
-13 27 10 23 21 -5 23 -9 18 -42 -15 -103 -117 -176 -220 -156 -50 9 -117 76
-132 133 -22 80 16 164 91 201 55 27 110 27 165 0z m27 -106 c4 -9 1 -20 -6
-24 -12 -7 -25 9 -27 34 -2 14 27 7 33 -10z m-76 -5 c-3 -7 -15 -15 -29 -16
-33 -5 -42 -16 -34 -42 5 -16 13 -20 37 -18 39 4 49 -19 13 -28 -60 -15 -104
41 -71 91 12 19 25 25 52 25 24 0 34 -4 32 -12z m17 -35 c-17 -12 -17 -13 -2
-13 9 0 17 -4 17 -9 0 -5 -16 -8 -36 -6 -40 4 -59 15 -26 15 12 0 22 6 22 14
0 16 20 26 34 18 5 -3 1 -11 -9 -19z m142 -75 c-3 -8 -6 -5 -6 6 -1 11 2 17 5
13 3 -3 4 -12 1 -19z m-21 -46 c-17 -16 -18 -16 -5 5 7 12 15 20 18 17 3 -2
-3 -12 -13 -22z"/>
<path d="M1448 1503 c6 -2 18 -2 25 0 6 3 1 5 -13 5 -14 0 -19 -2 -12 -5z"/>
<path d="M2310 1712 c-83 -41 -107 -152 -51 -230 68 -92 217 -79 266 24 22 47
16 120 -13 161 -42 60 -133 80 -202 45z m44 -23 c-13 -15 -18 -36 -18 -76 0
-50 3 -58 32 -84 18 -16 40 -29 50 -30 9 0 -1 -9 -23 -20 -53 -25 -33 -24 34
1 60 23 71 22 41 -5 -30 -27 -87 -33 -139 -15 -36 12 -47 22 -63 58 -30 68 -6
144 56 175 43 22 52 21 30 -4z m124 -14 c79 -67 26 -188 -65 -150 -58 24 -75
105 -32 151 29 31 60 30 97 -1z"/>
<path d="M2407 1674 c-10 -11 -9 -52 3 -59 5 -3 7 -12 4 -20 -16 -41 54 -77
74 -37 21 38 -53 143 -81 116z m33 -35 c0 -5 -4 -9 -10 -9 -5 0 -10 7 -10 16
0 8 5 12 10 9 6 -3 10 -10 10 -16z m28 -57 c2 -14 -2 -22 -12 -22 -19 0 -29
17 -22 36 8 22 30 12 34 -14z"/>
<path d="M2784 1613 c-11 -2 -40 -24 -64 -48 -43 -43 -44 -46 -44 -112 -1 -49
4 -75 17 -93 9 -13 17 -20 17 -15 0 6 4 3 10 -5 5 -8 12 -11 15 -8 4 4 -3 15
-14 25 -12 9 -21 25 -21 35 0 10 -5 18 -11 18 -8 0 -8 4 0 13 7 10 7 17 0 24
-7 7 -8 17 -3 25 5 7 9 18 10 23 4 29 18 55 30 55 8 0 14 6 14 13 0 18 36 36
80 41 47 6 80 -3 80 -21 0 -9 6 -13 14 -10 8 3 22 0 32 -7 13 -10 16 -22 11
-50 -4 -27 -2 -36 9 -36 10 0 13 9 9 36 -5 38 -29 74 -50 74 -7 0 -17 6 -23
13 -11 12 -74 18 -118 10z"/>
<path d="M732 1595 l-33 -14 61 -91 c33 -49 64 -90 68 -90 14 0 28 17 81 93
50 73 52 80 37 95 -23 23 -168 28 -214 7z m194 -17 c4 -4 -14 -39 -39 -78 -26
-38 -47 -75 -47 -82 0 -7 -25 24 -55 69 -30 46 -55 85 -55 87 0 15 181 19 196
4z"/>
<path d="M2771 1574 c-18 -21 -6 -30 14 -11 8 9 15 18 15 21 0 11 -15 5 -29
-10z"/>
<path d="M2850 1580 c0 -5 7 -10 15 -10 8 0 15 5 15 10 0 6 -7 10 -15 10 -8 0
-15 -4 -15 -10z"/>
<path d="M2810 1570 c0 -5 5 -10 10 -10 6 0 10 5 10 10 0 6 -4 10 -10 10 -5 0
-10 -4 -10 -10z"/>
<path d="M2840 1546 c0 -9 7 -16 16 -16 17 0 14 22 -4 28 -7 2 -12 -3 -12 -12z"/>
<path d="M2890 1550 c0 -5 5 -10 10 -10 6 0 10 5 10 10 0 6 -4 10 -10 10 -5 0
-10 -4 -10 -10z"/>
<path d="M2930 1550 c0 -5 5 -10 10 -10 6 0 10 5 10 10 0 6 -4 10 -10 10 -5 0
-10 -4 -10 -10z"/>
<path d="M2790 1536 c0 -9 7 -16 16 -16 17 0 14 22 -4 28 -7 2 -12 -3 -12 -12z"/>
<path d="M2740 1526 c0 -9 7 -16 16 -16 17 0 14 22 -4 28 -7 2 -12 -3 -12 -12z"/>
<path d="M2916 1521 c-4 -5 -2 -12 3 -15 5 -4 12 -2 15 3 4 5 2 12 -3 15 -5 4
-12 2 -15 -3z"/>
<path d="M1938 1509 c-12 -7 -18 -22 -17 -47 1 -38 3 -36 13 9 6 29 27 42 52
32 11 -4 15 -15 12 -39 -2 -19 0 -34 4 -34 13 0 9 65 -4 78 -15 15 -37 15 -60
1z"/>
<path d="M2870 1506 c0 -9 7 -16 16 -16 17 0 14 22 -4 28 -7 2 -12 -3 -12 -12z"/>
<path d="M2710 1500 c0 -5 5 -10 10 -10 6 0 10 -7 10 -15 0 -8 7 -15 15 -15 8
0 15 7 15 15 0 8 -7 15 -15 15 -8 0 -15 5 -15 10 0 6 -4 10 -10 10 -5 0 -10
-4 -10 -10z"/>
<path d="M2822 1498 c6 -18 28 -21 28 -4 0 9 -7 16 -16 16 -9 0 -14 -5 -12
-12z"/>
<path d="M2775 1491 c-7 -12 12 -24 25 -16 11 7 4 25 -10 25 -5 0 -11 -4 -15
-9z"/>
<path d="M2915 1480 c-4 -6 -3 -16 3 -22 6 -6 12 -6 17 2 4 6 3 16 -3 22 -6 6
-12 6 -17 -2z"/>
<path d="M1816 1458 c-9 -12 -16 -30 -16 -39 0 -33 59 -64 75 -39 4 6 -7 10
-24 10 -27 0 -31 3 -31 29 0 31 25 60 40 45 4 -5 10 -22 12 -39 4 -25 6 -27
12 -12 12 25 -9 67 -33 67 -11 0 -27 -10 -35 -22z"/>
<path d="M2052 1455 c-7 -14 -12 -34 -11 -43 0 -9 5 -3 10 14 16 56 59 56 59
1 1 -26 3 -29 10 -15 7 11 7 25 0 42 -13 35 -52 35 -68 1z"/>
<path d="M2855 1470 c-7 -12 2 -30 16 -30 12 0 12 27 0 35 -5 3 -12 1 -16 -5z"/>
<path d="M2700 1460 c0 -5 5 -10 10 -10 6 0 10 5 10 10 0 6 -4 10 -10 10 -5 0
-10 -4 -10 -10z"/>
<path d="M2812 1456 c1 -10 8 -17 13 -17 15 1 12 24 -3 29 -9 3 -13 -2 -10
-12z"/>
<path d="M2970 1455 c0 -8 5 -15 10 -15 6 0 10 7 10 15 0 8 -4 15 -10 15 -5 0
-10 -7 -10 -15z"/>
<path d="M2767 1453 c-12 -11 -8 -23 8 -23 8 0 15 7 15 15 0 16 -12 20 -23 8z"/>
<path d="M2935 1439 c-10 -15 3 -25 16 -12 7 7 7 13 1 17 -6 3 -14 1 -17 -5z"/>
<path d="M2712 1428 c6 -18 28 -21 28 -4 0 9 -7 16 -16 16 -9 0 -14 -5 -12
-12z"/>
<path d="M2890 1424 c0 -9 5 -14 12 -12 18 6 21 28 4 28 -9 0 -16 -7 -16 -16z"/>
<path d="M2795 1420 c-4 -6 -3 -16 3 -22 6 -6 12 -6 17 2 4 6 3 16 -3 22 -6 6
-12 6 -17 -2z"/>
<path d="M2842 1418 c6 -18 28 -21 28 -4 0 9 -7 16 -16 16 -9 0 -14 -5 -12
-12z"/>
<path d="M1942 1408 c6 -17 50 -17 55 0 3 8 -6 12 -27 12 -21 0 -30 -4 -28
-12z"/>
<path d="M2960 1405 c0 -8 5 -15 10 -15 6 0 10 7 10 15 0 8 -4 15 -10 15 -5 0
-10 -7 -10 -15z"/>
<path d="M2750 1394 c0 -9 5 -14 12 -12 18 6 21 28 4 28 -9 0 -16 -7 -16 -16z"/>
<path d="M2920 1401 c0 -17 37 -54 43 -44 3 5 -5 19 -19 32 -13 13 -24 18 -24
12z"/>
<path d="M2715 1390 c-3 -5 -1 -10 4 -10 6 0 11 5 11 10 0 6 -2 10 -4 10 -3 0
-8 -4 -11 -10z"/>
<path d="M2060 1380 c0 -5 11 -10 24 -10 14 0 28 5 31 10 4 6 -7 10 -24 10
-17 0 -31 -4 -31 -10z"/>
<path d="M2820 1374 c0 -9 5 -14 12 -12 18 6 21 28 4 28 -9 0 -16 -7 -16 -16z"/>
<path d="M2868 1369 c-20 -21 -24 -43 -7 -37 6 2 10 8 10 13 0 6 9 13 20 17
10 4 19 12 19 18 0 16 -23 10 -42 -11z"/>
<path d="M770 1359 c-6 -11 -12 -34 -12 -50 -1 -31 16 -58 29 -46 4 4 1 13 -5
19 -27 27 -6 75 38 91 9 3 3 6 -12 6 -18 1 -31 -6 -38 -20z"/>
<path d="M868 1360 c47 -44 10 -120 -51 -105 -14 4 -28 2 -31 -4 -5 -7 7 -11
35 -11 71 0 111 64 73 118 -8 12 -22 22 -31 22 -14 0 -13 -4 5 -20z"/>
<path d="M242 1349 c-80 -25 -154 -93 -173 -158 l-13 -44 36 -33 c78 -71 203
-80 318 -22 68 34 105 76 126 143 l14 47 -33 29 c-17 16 -38 27 -45 24 -7 -3
-10 -1 -7 5 8 12 -60 30 -115 29 -25 0 -73 -9 -108 -20z m141 4 c-13 -2 -33
-2 -45 0 -13 2 -3 4 22 4 25 0 35 -2 23 -4z m-126 -23 c-27 -10 -74 -38 -105
-61 -53 -39 -55 -40 -27 -9 30 32 136 90 165 90 8 -1 -7 -9 -33 -20z m220 -15
c51 -21 59 -38 33 -80 -11 -17 -17 -34 -15 -37 10 -10 -61 -75 -106 -96 -53
-26 -184 -30 -234 -8 -26 11 -18 12 73 8 99 -5 104 -4 165 26 35 18 72 41 83
53 14 16 6 13 -29 -10 -75 -51 -127 -64 -221 -59 -44 3 -98 13 -119 21 -34 15
-37 19 -27 37 6 11 8 26 4 33 -4 6 -3 9 1 4 5 -4 27 10 49 32 44 42 107 79
159 92 46 12 135 4 184 -16z"/>
<path d="M340 1293 c0 -5 -38 -19 -85 -32 -72 -21 -86 -28 -91 -48 -5 -17 -1
-28 11 -37 18 -13 36 -8 98 25 12 6 17 6 17 -3 0 -6 7 -3 15 8 10 13 14 14 15
5 0 -11 3 -11 15 -1 9 7 18 10 21 7 3 -3 17 1 31 8 14 7 31 11 38 9 7 -3 20 7
30 22 15 23 15 26 2 21 -9 -3 -18 1 -21 9 -6 15 -48 15 -62 1 -4 -4 -13 -2
-21 4 -7 6 -13 7 -13 2z m100 -45 c0 -4 -4 -8 -10 -8 -5 0 -10 4 -10 9 0 5 -3
18 -6 28 -5 16 -4 16 10 -1 9 -11 16 -23 16 -28z m-70 -10 c0 -14 -18 -9 -24
8 -11 28 -6 39 9 20 8 -11 15 -23 15 -28z m24 26 c10 -25 -1 -29 -14 -5 -6 12
-7 21 -1 21 5 0 12 -7 15 -16z m-54 -36 c0 -14 -18 -9 -24 8 -11 28 -6 39 9
20 8 -11 15 -23 15 -28z m-46 16 c11 -28 6 -39 -9 -20 -8 11 -15 23 -15 28 0
14 18 9 24 -8z m-34 -3 c0 -5 3 -18 6 -28 5 -16 4 -16 -10 1 -18 23 -20 36 -6
36 6 0 10 -4 10 -9z m-27 -44 c-7 -11 -23 12 -23 33 1 12 4 11 15 -4 8 -10 12
-23 8 -29z m-33 -5 c0 -7 -4 -10 -10 -7 -5 3 -10 16 -10 28 0 18 2 19 10 7 5
-8 10 -21 10 -28z"/>
<path d="M1940 1358 c0 -7 13 -13 30 -14 19 -1 30 4 30 12 0 9 -11 14 -30 14
-17 0 -30 -5 -30 -12z"/>
<path d="M2740 1360 c0 -5 5 -10 10 -10 6 0 10 5 10 10 0 6 -4 10 -10 10 -5 0
-10 -4 -10 -10z"/>
<path d="M2780 1361 c0 -6 5 -13 10 -16 6 -3 10 1 10 9 0 9 -4 16 -10 16 -5 0
-10 -4 -10 -9z"/>
<path d="M798 1343 c-2 -10 -1 -31 3 -48 6 -26 7 -23 8 18 1 48 -3 61 -11 30z"/>
<path d="M840 1317 c0 -29 -4 -47 -12 -47 -6 0 -8 -3 -5 -6 12 -12 38 18 32
37 -4 10 0 19 8 21 11 2 10 7 -5 22 -18 19 -18 19 -18 -27z"/>
<path d="M2907 1354 c-8 -8 1 -24 14 -24 5 0 9 7 9 15 0 15 -12 20 -23 9z"/>
<path d="M1825 1342 c-13 -13 -3 -22 26 -22 20 0 29 4 27 13 -5 12 -43 19 -53
9z"/>
<path d="M2078 1343 c-29 -7 -20 -23 13 -23 19 0 29 4 27 12 -5 14 -17 17 -40
11z"/>
<path d="M2807 1329 c-10 -11 -16 -23 -13 -26 8 -8 38 25 34 37 -2 6 -11 1
-21 -11z"/>
<path d="M2750 1331 c0 -6 5 -13 10 -16 6 -3 10 1 10 9 0 9 -4 16 -10 16 -5 0
-10 -4 -10 -9z"/>
<path d="M2877 1324 c-8 -8 1 -24 14 -24 5 0 9 7 9 15 0 15 -12 20 -23 9z"/>
<path d="M1951 1309 c-117 -25 -136 -191 -28 -242 43 -21 67 -21 112 -3 94 40
99 200 7 234 -47 18 -56 19 -91 11z m81 -33 c10 -7 15 -16 11 -20 -4 -4 2 -9
14 -12 25 -7 39 -34 18 -34 -20 0 -19 -19 0 -26 8 -4 15 -12 15 -20 0 -19 -56
-81 -75 -81 -23 0 -18 9 20 40 19 15 35 33 35 38 0 6 -13 -2 -28 -19 -30 -32
-100 -59 -126 -49 -37 14 -52 102 -25 143 33 50 102 70 141 40z"/>
<path d="M2005 1221 c-7 -12 12 -24 25 -16 11 7 4 25 -10 25 -5 0 -11 -4 -15
-9z"/>
<path d="M2836 1311 c-4 -5 -2 -12 3 -15 5 -4 12 -2 15 3 4 5 2 12 -3 15 -5 4
-12 2 -15 -3z"/>
<path d="M1790 1274 c-11 -33 -15 -81 -11 -151 2 -32 28 -53 64 -51 l32 1 -33
4 c-24 3 -36 11 -43 29 -12 34 -11 124 2 163 6 18 9 34 6 37 -3 3 -11 -11 -17
-32z"/>
<path d="M2105 1283 c7 -31 22 -50 30 -41 10 10 -6 56 -22 62 -12 5 -14 1 -8
-21z"/>
<path d="M2502 1270 c-23 -21 -26 -37 -16 -64 4 -12 20 -16 55 -16 27 0 49 5
49 10 0 6 -22 10 -50 10 -52 0 -62 11 -37 42 19 24 45 29 62 11 20 -19 33 -9
15 12 -17 21 -52 19 -78 -5z"/>
<path d="M1316 1189 c-20 -19 -23 -54 -11 -107 l8 -33 -61 2 c-80 3 -106 -13
-107 -69 -1 -22 3 -39 7 -36 4 3 8 19 8 36 0 42 24 57 93 58 l57 0 0 -48 c0
-27 6 -57 15 -68 8 -10 15 -14 15 -9 1 6 2 43 3 84 l2 75 33 -1 c17 -1 39 -2
47 -2 12 -1 15 -17 15 -83 0 -45 3 -78 7 -74 4 4 6 22 5 40 l-3 34 83 -2 83
-2 -1 -36 c-1 -33 1 -36 20 -27 17 8 21 19 21 55 0 36 -3 43 -15 37 -8 -4 -52
-8 -97 -10 l-83 -3 0 40 c0 33 4 42 29 54 16 9 54 15 90 15 35 0 65 2 69 5 12
13 -140 5 -166 -8 -28 -14 -70 -20 -134 -17 -38 1 -38 1 -38 45 0 53 7 57 112
61 100 4 98 17 -2 14 -66 -1 -89 -6 -104 -20z"/>
<path d="M2141 1184 c0 -11 3 -14 6 -6 3 7 2 16 -1 19 -3 4 -6 -2 -5 -13z"/>
<path d="M1470 1180 c-1 -3 -3 -16 -6 -30 -3 -21 -2 -22 7 -7 6 10 8 23 5 30
-2 7 -5 10 -6 7z"/>
<path d="M2437 1074 c-27 -76 -34 -111 -27 -118 15 -15 171 -16 162 -1 -4 5
-9 53 -13 105 l-6 95 -1 -102 c-2 -119 -21 -143 -24 -30 l-2 72 -5 -69 c-4
-44 -11 -71 -19 -74 -10 -3 -12 5 -8 29 16 103 16 114 7 100 -5 -8 -13 -41
-16 -73 -6 -54 -13 -67 -27 -52 -3 3 1 30 9 60 8 31 12 61 10 67 -2 6 -11 -18
-21 -54 -21 -74 -24 -81 -36 -74 -5 3 7 51 26 107 19 57 33 107 31 112 -1 4
-20 -40 -40 -100z"/>
<path d="M1360 1145 c-11 -14 -10 -19 6 -35 17 -17 21 -17 39 -4 15 11 17 18
9 32 -15 23 -38 26 -54 7z m27 -32 c-3 -10 -5 -4 -5 12 0 17 2 24 5 18 2 -7 2
-21 0 -30z"/>
<path d="M2526 1125 c-9 -26 -7 -32 5 -12 6 10 9 21 6 23 -2 3 -7 -2 -11 -11z"/>
<path d="M2591 1124 c0 -11 3 -14 6 -6 3 7 2 16 -1 19 -3 4 -6 -2 -5 -13z"/>
<path d="M2123 1123 c-7 -3 -13 -11 -13 -18 0 -8 -8 -19 -17 -24 -16 -9 -14
-10 8 -11 21 0 28 6 33 26 8 30 6 33 -11 27z"/>
<path d="M2481 1114 c0 -11 3 -14 6 -6 3 7 2 16 -1 19 -3 4 -6 -2 -5 -13z"/>
<path d="M2501 1114 c0 -11 3 -14 6 -6 3 7 2 16 -1 19 -3 4 -6 -2 -5 -13z"/>
<path d="M2571 1114 c0 -11 3 -14 6 -6 3 7 2 16 -1 19 -3 4 -6 -2 -5 -13z"/>
<path d="M670 1100 c-12 -8 -9 -10 13 -10 70 0 187 -88 187 -140 0 -65 -9 -63
-89 12 -73 69 -161 129 -161 111 0 -4 26 -25 58 -45 31 -20 83 -64 115 -96
l58 -58 -21 -27 -21 -27 -72 57 c-40 31 -98 79 -129 106 -32 27 -58 44 -58 39
0 -12 87 -87 184 -160 l69 -52 -47 -20 -47 -20 -72 54 c-40 29 -85 67 -100 84
-28 29 -28 31 -13 60 22 42 20 52 -4 23 -25 -29 -25 -52 -2 -81 16 -20 17 -28
7 -58 -15 -42 -5 -87 26 -117 23 -21 16 -2 -9 27 -10 12 -13 30 -9 59 7 52 11
55 41 32 17 -14 22 -24 15 -34 -14 -22 -10 -83 6 -105 14 -18 15 -17 8 11 -8
32 -7 84 1 93 3 2 25 -9 49 -25 38 -25 43 -31 34 -50 -5 -12 -6 -34 -2 -50 4
-15 10 -22 12 -15 3 6 14 12 26 12 30 1 107 36 135 63 34 31 62 91 61 129 0
31 -1 30 -13 -14 -22 -83 -85 -141 -178 -163 -25 -6 -28 -4 -28 19 0 21 8 29
50 47 27 12 65 39 84 59 35 39 61 104 49 123 -4 6 0 8 11 4 24 -9 12 8 -35 50
-21 20 -36 39 -33 44 3 5 -1 9 -8 9 -7 0 -35 11 -63 25 -56 27 -64 29 -85 15z"/>
<path d="M1615 1080 c-3 -6 1 -7 9 -4 18 7 21 14 7 14 -6 0 -13 -4 -16 -10z"/>
<path d="M2577 1045 c10 -77 24 -110 17 -40 -3 33 -10 67 -15 75 -5 9 -6 -5
-2 -35z"/>
<path d="M579 1061 c-13 -11 -19 -20 -14 -20 14 0 50 28 43 34 -3 3 -16 -3
-29 -14z"/>
<path d="M1512 1053 c-10 -19 -6 -43 7 -43 4 0 7 10 7 21 -1 12 5 24 12 26 7
3 12 -5 12 -22 0 -15 4 -24 10 -20 16 10 12 42 -6 49 -25 9 -33 7 -42 -11z"/>
<path d="M2616 1025 c3 -22 10 -47 15 -55 12 -18 1 44 -12 75 -7 14 -7 7 -3
-20z"/>
<path d="M1204 985 c-7 -18 2 -45 14 -45 5 0 7 11 4 25 -3 18 0 25 11 25 10 0
17 -11 19 -27 4 -23 6 -25 12 -10 10 21 -9 47 -36 47 -10 0 -21 -7 -24 -15z"/>
<path d="M1192 932 c-23 -2 -40 -7 -37 -13 8 -12 155 -12 155 0 0 11 -59 17
-118 13z"/>
<path d="M1365 920 c4 -6 11 -8 16 -5 14 9 11 15 -7 15 -8 0 -12 -5 -9 -10z"/>
<path d="M492 875 c0 -16 2 -22 5 -12 2 9 2 23 0 30 -3 6 -5 -1 -5 -18z"/>
<path d="M1930 840 c-8 -5 -23 -11 -32 -14 -26 -8 -22 -53 7 -81 13 -14 28
-25 32 -25 4 0 25 -15 45 -34 30 -28 37 -41 36 -68 -1 -18 4 -44 11 -56 11
-21 10 -22 -31 -22 -42 0 -43 0 -43 -35 l0 -35 75 0 76 0 -4 35 c-3 28 -9 35
-26 35 -14 0 -22 6 -22 18 0 9 -4 34 -8 55 -6 35 -4 41 27 70 19 18 46 40 61
50 38 26 51 65 30 88 -9 10 -22 15 -30 12 -8 -3 -14 -1 -14 4 0 12 -170 14
-190 3z m52 -62 c-3 -39 -1 -50 7 -42 7 6 13 28 14 50 2 36 4 39 35 42 30 3
32 1 33 -30 l2 -33 7 35 c8 40 12 33 14 -25 1 -22 -5 -46 -11 -53 -7 -7 -13
-10 -13 -5 0 4 -8 -7 -17 -25 l-16 -33 -38 38 c-29 29 -39 49 -44 86 -6 42 -5
47 11 47 17 0 19 -7 16 -52z m-52 40 c10 -62 10 -78 2 -78 -13 0 -35 56 -27
69 5 10 24 16 25 9z m228 -19 c4 -22 -32 -64 -47 -54 -9 5 -10 10 -2 18 6 6
11 22 11 35 0 17 5 23 17 20 10 -2 19 -10 21 -19z m-98 -289 c0 -16 -7 -20
-35 -20 -28 0 -35 4 -35 20 0 16 7 20 35 20 28 0 35 -4 35 -20z"/>
<path d="M2895 838 c-22 -5 -54 -6 -72 -3 -25 4 -37 1 -55 -17 l-22 -22 31 -8
c17 -4 42 -23 56 -42 l26 -34 -32 -5 c-39 -6 -67 8 -66 31 1 16 2 16 6 0 3
-13 15 -18 40 -18 36 0 36 0 17 21 -20 22 -53 43 -59 37 -2 -2 -6 -14 -10 -28
-4 -18 0 -33 15 -49 19 -22 22 -23 47 -10 20 11 27 11 30 2 5 -15 43 -18 43
-4 0 6 24 7 55 4 38 -4 55 -2 55 6 0 11 -27 15 -92 13 -28 -2 -38 3 -43 17 -3
11 -22 34 -41 50 -33 30 -34 31 -10 31 22 0 42 -23 37 -43 -1 -4 4 -7 11 -6 7
1 29 -5 48 -13 49 -22 90 -30 90 -19 0 5 -10 12 -22 16 -48 13 -118 49 -118
61 0 20 62 24 85 5 49 -42 55 -45 55 -27 0 9 -11 22 -25 28 -30 13 -34 33 -5
25 11 -3 18 -1 14 4 -6 11 -36 10 -89 -3z m-90 -98 c3 -5 1 -10 -4 -10 -6 0
-11 5 -11 10 0 6 2 10 4 10 3 0 8 -4 11 -10z"/>
<path d="M15 810 c-3 -5 -1 -10 4 -10 6 0 11 5 11 10 0 6 -2 10 -4 10 -3 0 -8
-4 -11 -10z"/>
<path d="M50 800 c-9 -6 -10 -10 -3 -10 6 0 15 5 18 10 8 12 4 12 -15 0z"/>
<path d="M0 774 c0 -7 21 -20 48 -28 l47 -15 -50 -1 c-42 -1 -46 -3 -27 -11
31 -12 70 -1 83 23 7 13 16 17 27 13 9 -4 26 -8 36 -11 21 -4 42 -21 35 -28
-5 -5 -102 -15 -156 -16 -24 0 -43 -4 -43 -8 0 -5 34 -9 75 -8 41 0 75 3 75 8
0 4 12 5 28 2 21 -4 30 0 40 17 18 29 1 46 -66 64 -45 11 -53 11 -60 -1 -7
-13 -14 -13 -50 -1 -35 12 -42 12 -42 1z"/>
<path d="M745 745 c-30 -25 -30 -25 -3 -14 15 7 29 18 32 25 7 18 6 18 -29
-11z"/>
<path d="M1332 740 c-101 -62 -96 -220 8 -272 44 -22 102 -23 146 -2 103 49
112 204 15 270 -46 31 -121 33 -169 4z m181 -41 c79 -86 -21 -192 -104 -110
-40 41 -41 100 -2 131 34 27 68 20 106 -21z m-155 -6 c-24 -65 32 -152 98
-153 16 -1 15 -4 -9 -25 -39 -35 -27 -31 39 11 39 25 53 30 46 17 -22 -41
-104 -84 -118 -62 -3 6 -17 8 -29 5 -35 -9 -53 2 -80 48 -39 67 -20 156 40
184 26 12 27 11 13 -25z"/>
<path d="M1413 695 c-3 -9 2 -24 11 -34 9 -10 16 -27 16 -40 0 -29 43 -50 65
-31 23 19 18 54 -10 78 -14 12 -25 26 -25 32 0 16 -50 11 -57 -5z m45 -16 c-2
-6 -8 -10 -13 -10 -5 0 -11 4 -13 10 -2 6 4 11 13 11 9 0 15 -5 13 -11z m39
-45 c8 -20 -8 -36 -26 -25 -15 10 -8 41 9 41 6 0 13 -7 17 -16z"/>
<path d="M640 700 l-25 -8 28 -1 c15 -1 27 4 27 9 0 6 -1 10 -2 9 -2 -1 -14
-5 -28 -9z"/>
<path d="M2440 661 c-72 -22 -119 -63 -145 -123 -67 -162 100 -342 266 -287
88 30 143 106 143 199 0 99 -58 176 -156 205 -56 16 -70 17 -108 6z m106 -36
c19 -8 40 -12 48 -9 13 5 38 -17 35 -32 -4 -23 2 -36 14 -31 17 7 41 -29 26
-39 -7 -4 -9 -22 -5 -45 15 -92 -74 -189 -173 -189 -51 0 -89 15 -124 48 -41
38 -57 74 -57 126 0 81 33 134 105 167 49 23 84 24 131 4z m141 -207 c-3 -7
-5 -2 -5 12 0 14 2 19 5 13 2 -7 2 -19 0 -25z m-16 -45 c-12 -20 -14 -14 -5
12 4 9 9 14 11 11 3 -2 0 -13 -6 -23z"/>
<path d="M2425 596 c-38 -17 -60 -42 -80 -90 -26 -62 3 -143 63 -178 65 -38
177 -12 204 47 6 13 15 22 20 19 12 -8 5 19 -7 28 -16 12 -19 10 -33 -22 -28
-62 -126 -81 -181 -34 -43 36 -58 89 -38 137 22 51 70 79 125 74 45 -5 86 -32
75 -50 -3 -5 -1 -7 5 -3 6 3 13 2 17 -4 3 -6 -1 -13 -10 -17 -18 -6 -38 14
-31 32 5 14 -90 18 -114 5 -11 -6 -27 -24 -36 -41 -48 -94 70 -172 152 -100
20 18 29 31 21 35 -7 2 2 5 18 6 30 2 30 2 5 10 -24 8 -24 8 7 9 39 1 48 13
23 31 -18 13 -18 14 -2 27 16 12 16 13 -1 7 -10 -4 -17 -2 -15 4 3 11 -42 56
-72 72 -26 14 -79 12 -115 -4z m85 -85 c0 -18 -12 -41 -22 -41 -5 0 -6 5 -3
10 9 14 -8 13 -23 -2 -16 -16 -15 -23 3 -42 13 -12 21 -13 40 -4 30 13 43 5
25 -17 -7 -8 -28 -15 -46 -15 -58 0 -81 62 -38 105 17 16 64 21 64 6z m25 -32
c-5 -15 -4 -19 4 -15 6 4 11 2 11 -4 0 -6 -8 -10 -17 -8 -10 1 -24 -1 -31 -6
-8 -5 -18 -4 -25 3 -8 8 -5 11 10 11 12 0 23 8 26 20 3 11 10 20 17 20 7 0 9
-8 5 -21z m72 -5 c-3 -4 -14 -3 -24 0 -15 6 -15 8 -3 16 16 10 39 -4 27 -16z"/>
<path d="M950 630 c-33 -8 -5 -20 32 -13 15 3 31 -2 41 -11 8 -9 22 -16 31
-16 19 0 30 -17 14 -23 -8 -2 -9 -8 -4 -13 5 -5 11 -4 13 4 3 6 10 9 16 5 7
-3 3 4 -8 16 -35 40 -93 62 -135 51z"/>
<path d="M852 580 c-53 -53 -68 -130 -37 -189 14 -28 45 -49 45 -32 0 5 -7 11
-15 15 -8 3 -15 14 -15 24 0 10 -5 23 -12 30 -9 9 -9 12 0 12 9 0 9 5 0 20
-11 17 -10 22 1 29 7 5 11 14 7 20 -8 13 23 63 35 55 5 -3 9 2 9 10 0 21 37
41 43 23 2 -6 8 -9 12 -5 10 9 -3 28 -19 28 -8 0 -32 -18 -54 -40z"/>
<path d="M986 601 c-4 -5 -2 -12 3 -15 5 -4 12 -2 15 3 4 5 2 12 -3 15 -5 4
-12 2 -15 -3z"/>
<path d="M318 590 c-73 -22 -102 -55 -114 -130 -17 -106 108 -214 202 -175 64
26 63 98 -3 174 -18 22 -33 46 -33 54 0 30 12 47 34 47 20 1 20 1 3 11 -15 9
-24 6 -43 -12 -13 -12 -24 -27 -24 -33 0 -11 20 -43 65 -105 28 -38 33 -92 10
-111 -22 -18 -80 -15 -117 7 -51 30 -78 77 -78 138 0 48 3 56 35 83 19 17 50
34 70 38 19 3 35 10 35 15 0 10 -5 10 -42 -1z"/>
<path d="M946 591 c-4 -5 -2 -12 3 -15 5 -4 12 -2 15 3 4 5 2 12 -3 15 -5 4
-12 2 -15 -3z"/>
<path d="M430 576 c0 -3 14 -19 32 -35 l32 -28 -16 -57 c-8 -31 -12 -56 -8
-56 4 0 11 11 14 25 4 14 10 24 14 21 4 -2 5 16 2 41 -4 36 -12 51 -37 71 -18
13 -33 22 -33 18z"/>
<path d="M890 570 c0 -5 5 -10 10 -10 6 0 10 5 10 10 0 6 -4 10 -10 10 -5 0
-10 -4 -10 -10z"/>
<path d="M970 555 c0 -8 7 -15 15 -15 8 0 15 7 15 15 0 8 -7 15 -15 15 -8 0
-15 -7 -15 -15z"/>
<path d="M1020 560 c0 -5 5 -10 10 -10 6 0 10 5 10 10 0 6 -4 10 -10 10 -5 0
-10 -4 -10 -10z"/>
<path d="M2000 560 c0 -5 5 -10 10 -10 6 0 10 5 10 10 0 6 -4 10 -10 10 -5 0
-10 -4 -10 -10z"/>
<path d="M920 545 c0 -8 7 -15 15 -15 8 0 15 7 15 15 0 8 -7 15 -15 15 -8 0
-15 -7 -15 -15z"/>
<path d="M870 535 c0 -8 7 -15 15 -15 8 0 15 7 15 15 0 8 -7 15 -15 15 -8 0
-15 -7 -15 -15z"/>
<path d="M1090 540 c0 -5 5 -10 11 -10 5 0 7 5 4 10 -3 6 -8 10 -11 10 -2 0
-4 -4 -4 -10z"/>
<path d="M1045 530 c-3 -5 1 -10 10 -10 9 0 13 5 10 10 -3 6 -8 10 -10 10 -2
0 -7 -4 -10 -10z"/>
<path d="M840 520 c0 -5 5 -10 11 -10 5 0 7 5 4 10 -3 6 -8 10 -11 10 -2 0 -4
-4 -4 -10z"/>
<path d="M955 520 c-4 -6 -3 -16 3 -22 6 -6 12 -6 17 2 4 6 3 16 -3 22 -6 6
-12 6 -17 -2z"/>
<path d="M1000 515 c0 -8 7 -15 15 -15 8 0 15 7 15 15 0 8 -7 15 -15 15 -8 0
-15 -7 -15 -15z"/>
<path d="M1085 511 c-6 -11 9 -23 19 -14 9 9 7 23 -3 23 -6 0 -12 -4 -16 -9z"/>
<path d="M865 500 c-4 -6 -3 -16 3 -22 6 -6 12 -6 17 2 4 6 3 16 -3 22 -6 6
-12 6 -17 -2z"/>
<path d="M902 498 c5 -15 28 -18 29 -3 0 6 -7 12 -17 13 -10 3 -15 -1 -12 -10z"/>
<path d="M1040 485 c0 -8 7 -15 15 -15 8 0 15 7 15 15 0 8 -7 15 -15 15 -8 0
-15 -7 -15 -15z"/>
<path d="M985 479 c-10 -15 1 -23 20 -15 9 3 13 10 10 16 -8 13 -22 13 -30 -1z"/>
<path d="M830 470 c0 -5 4 -10 10 -10 5 0 7 -6 4 -14 -6 -16 12 -31 21 -17 3
6 0 19 -7 31 -14 21 -28 27 -28 10z"/>
<path d="M940 465 c0 -8 7 -15 15 -15 8 0 15 7 15 15 0 8 -7 15 -15 15 -8 0
-15 -7 -15 -15z"/>
<path d="M1100 464 c0 -8 5 -12 10 -9 6 3 10 10 10 16 0 5 -4 9 -10 9 -5 0
-10 -7 -10 -16z"/>
<path d="M890 455 c0 -8 7 -15 15 -15 8 0 15 7 15 15 0 8 -7 15 -15 15 -8 0
-15 -7 -15 -15z"/>
<path d="M1026 453 c-11 -11 -6 -23 9 -23 8 0 15 4 15 9 0 13 -16 22 -24 14z"/>
<path d="M1065 450 c-3 -5 1 -10 9 -10 9 0 16 5 16 10 0 6 -4 10 -9 10 -6 0
-13 -4 -16 -10z"/>
<path d="M975 440 c-7 -12 2 -30 16 -30 12 0 12 27 0 35 -5 3 -12 1 -16 -5z"/>
<path d="M920 425 c0 -8 7 -15 15 -15 8 0 15 7 15 15 0 8 -7 15 -15 15 -8 0
-15 -7 -15 -15z"/>
<path d="M885 420 c-4 -6 -3 -16 3 -22 6 -6 12 -6 17 2 4 6 3 16 -3 22 -6 6
-12 6 -17 -2z"/>
<path d="M1090 420 c0 -5 5 -10 10 -10 6 0 10 5 10 10 0 6 -4 10 -10 10 -5 0
-10 -4 -10 -10z"/>
<path d="M1050 410 c0 -5 5 -10 10 -10 6 0 10 5 10 10 0 6 -4 10 -10 10 -5 0
-10 -4 -10 -10z"/>
<path d="M840 400 c0 -5 5 -10 10 -10 6 0 10 5 10 10 0 6 -4 10 -10 10 -5 0
-10 -4 -10 -10z"/>
<path d="M952 389 c2 -6 8 -10 13 -10 5 0 11 4 13 10 2 6 -4 11 -13 11 -9 0
-15 -5 -13 -11z"/>
<path d="M1010 384 c0 -17 22 -14 28 4 2 7 -3 12 -12 12 -9 0 -16 -7 -16 -16z"/>
<path d="M1076 393 c-11 -11 -6 -23 9 -23 8 0 15 4 15 9 0 13 -16 22 -24 14z"/>
<path d="M1698 384 l-36 -15 14 -34 c8 -19 14 -55 14 -80 0 -78 62 -119 119
-79 22 16 23 21 16 83 -4 36 -8 80 -8 98 0 23 -6 33 -21 37 -33 9 -58 6 -98
-10z m91 -26 c-5 -42 2 -89 13 -82 8 5 9 0 5 -16 -3 -13 -2 -31 4 -41 7 -14 4
-21 -13 -33 -12 -9 -28 -16 -35 -16 -21 0 -53 62 -52 100 0 19 -2 46 -5 60 -7
29 7 40 52 40 21 0 32 -5 31 -12z"/>
<path d="M910 376 c0 -8 4 -17 9 -20 10 -7 23 19 14 28 -11 11 -23 6 -23 -8z"/>
<path d="M870 370 c0 -5 5 -10 10 -10 6 0 10 5 10 10 0 6 -4 10 -10 10 -5 0
-10 -4 -10 -10z"/>
<path d="M987 366 c-3 -8 -2 -18 3 -21 13 -8 20 9 11 24 -6 10 -10 9 -14 -3z"/>
<path d="M1835 369 c-3 -8 1 -38 9 -68 27 -104 -19 -175 -103 -156 -47 10 -67
44 -75 124 -4 39 -11 73 -15 76 -5 2 -18 -18 -30 -47 -18 -43 -19 -57 -10 -92
6 -23 27 -56 47 -77 114 -114 304 9 253 163 -14 43 -68 98 -76 77z m37 -95
c-8 -14 -10 -11 -10 12 0 16 3 34 7 39 10 16 13 -33 3 -51z m24 -45 c-7 -45
-35 -87 -69 -106 -24 -13 -85 -18 -73 -6 8 8 13 9 40 12 34 3 86 77 86 121 0
11 5 20 11 20 8 0 9 -13 5 -41z m-216 -69 c6 0 9 -4 5 -10 -8 -13 -32 -2 -40
18 -4 9 -9 31 -11 47 -4 26 -2 25 15 -12 11 -24 25 -43 31 -43z"/>
<path d="M1037 364 c-8 -8 1 -24 14 -24 5 0 9 7 9 15 0 15 -12 20 -23 9z"/>
<path d="M200 353 c0 -6 8 -17 18 -24 16 -13 16 -13 2 6 -8 11 -16 22 -17 24
-2 2 -3 0 -3 -6z"/>
<path d="M940 350 c0 -5 5 -10 10 -10 6 0 10 5 10 10 0 6 -4 10 -10 10 -5 0
-10 -4 -10 -10z"/>
<path d="M882 339 c3 -8 10 -14 16 -14 5 0 14 -3 18 -7 10 -11 24 -10 24 1 0
5 -8 11 -17 15 -10 3 -24 9 -32 12 -9 4 -12 2 -9 -7z"/>
<path d="M380 330 c-9 -6 -10 -10 -3 -10 6 0 15 5 18 10 8 12 4 12 -15 0z"/>
<path d="M1010 324 c0 -8 5 -12 10 -9 6 3 10 10 10 16 0 5 -4 9 -10 9 -5 0
-10 -7 -10 -16z"/>
<path d="M960 320 c0 -5 7 -10 15 -10 8 0 15 5 15 10 0 6 -7 10 -15 10 -8 0
-15 -4 -15 -10z"/>
<path d="M1217 272 c-10 -10 -17 -32 -16 -48 1 -30 3 -27 13 17 12 55 65 47
67 -10 1 -25 3 -29 6 -12 3 12 2 34 -1 47 -8 29 -45 33 -69 6z"/>
<path d="M2831 258 c-61 -37 -98 -94 -108 -163 -6 -50 2 -95 18 -95 8 0 8 4 0
14 -6 7 -9 20 -6 27 4 13 13 75 14 108 1 10 12 4 34 -16 43 -42 177 -133 194
-133 8 0 -26 27 -76 60 -49 33 -101 74 -115 91 l-26 30 34 30 c19 16 37 29 40
29 4 0 16 9 28 19 29 28 61 10 103 -58 19 -30 35 -49 35 -41 0 33 -78 129
-105 130 -6 0 -35 -15 -64 -32z"/>
<path d="M2945 280 c28 -12 57 -12 50 0 -3 6 -21 10 -38 9 -27 0 -29 -2 -12
-9z"/>
<path d="M0 265 c0 -8 5 -16 10 -16 6 -1 16 -2 23 -3 20 -2 47 -68 47 -117 0
-26 -7 -65 -15 -88 -8 -22 -10 -41 -5 -41 29 0 44 153 20 209 -14 35 -80 80
-80 56z"/>
<path d="M595 264 c-30 -15 -65 -48 -65 -59 0 -4 17 7 37 24 21 17 43 31 50
31 7 0 13 5 13 10 0 13 1 13 -35 -6z"/>
<path d="M673 272 c-13 -2 -23 -9 -23 -16 0 -17 -60 -72 -89 -81 -13 -4 -26
-3 -30 3 -3 6 -7 -6 -7 -27 -1 -21 -9 -53 -18 -71 -18 -37 -21 -55 -5 -27 10
18 11 18 31 0 11 -10 24 -27 29 -38 9 -19 9 -19 5 2 -2 13 6 32 23 51 23 26
31 29 72 25 45 -5 48 -7 64 -49 23 -61 49 -61 26 1 -14 41 -14 46 1 61 23 23
61 10 53 -19 -5 -17 -4 -19 4 -7 8 12 11 7 11 -20 0 -20 -4 -40 -10 -46 -6 -6
-3 -10 10 -10 17 0 20 7 20 42 0 45 22 79 46 70 11 -4 11 2 -2 32 -16 38 -56
87 -86 103 -24 13 -98 25 -125 21z m138 -47 c3 2 3 -15 2 -38 -3 -42 -3 -42
10 -14 13 27 15 28 30 12 21 -20 22 -49 2 -65 -20 -17 -71 21 -91 68 -14 34
-14 38 3 50 15 11 20 10 29 -3 6 -8 13 -13 15 -10z m-86 5 c6 0 19 -18 27 -39
15 -39 15 -40 -11 -65 -28 -27 -46 -30 -100 -20 -25 5 -32 12 -37 41 -6 30 -2
39 22 64 22 22 36 28 58 24 16 -3 34 -5 41 -5z m-149 -125 c-7 -29 -36 -34
-36 -6 0 24 32 59 38 42 2 -7 1 -23 -2 -36z"/>
<path d="M2081 245 c-24 -11 -31 -19 -27 -31 11 -30 107 -162 121 -168 16 -6
7 10 -63 112 l-43 62 26 10 c34 13 126 13 160 0 l27 -10 -46 -64 c-51 -71 -63
-96 -48 -96 9 0 112 149 112 164 0 4 -16 14 -35 22 -44 18 -140 18 -184 -1z"/>
<path d="M1098 233 c-10 -12 -12 -26 -7 -43 l7 -25 1 26 c1 15 8 33 17 40 14
11 18 10 31 -6 7 -11 12 -28 9 -37 -2 -10 0 -18 5 -18 18 0 9 59 -10 70 -27
14 -36 13 -53 -7z"/>
<path d="M1337 232 c-10 -10 -17 -29 -17 -43 0 -21 2 -20 18 11 9 19 24 35 32
35 10 0 17 -13 20 -35 3 -23 8 -31 13 -22 10 14 -1 54 -17 64 -18 12 -32 9
-49 -10z"/>
<path d="M108 170 c4 -14 7 -46 7 -72 0 -25 3 -50 8 -54 4 -4 0 -16 -10 -26
-9 -10 -12 -18 -7 -18 38 0 46 90 14 155 -11 22 -17 29 -12 15z"/>
<path d="M1222 178 c6 -17 50 -17 55 0 3 8 -6 12 -27 12 -21 0 -30 -4 -28 -12z"/>
<path d="M1106 151 c15 -15 47 -17 51 -3 3 8 -6 12 -28 12 -20 0 -29 -4 -23
-9z"/>
<path d="M1340 151 c0 -15 49 -19 54 -5 4 10 -3 14 -24 14 -17 0 -30 -4 -30
-9z"/>
<path d="M491 134 c0 -11 3 -14 6 -6 3 7 2 16 -1 19 -3 4 -6 -2 -5 -13z"/>
<path d="M1220 127 c0 -9 13 -14 35 -15 26 -1 33 2 28 13 -7 19 -63 20 -63 2z"/>
<path d="M2 60 c1 -51 3 -59 10 -39 5 15 5 42 -1 65 -8 37 -9 35 -9 -26z"/>
<path d="M1118 113 c-29 -7 -20 -23 13 -23 19 0 29 4 27 12 -5 14 -17 17 -40
11z"/>
<path d="M1358 113 c-29 -7 -20 -23 13 -23 19 0 29 4 27 12 -5 14 -17 17 -40
11z"/>
<path d="M892 65 c0 -16 2 -22 5 -12 2 9 2 23 0 30 -3 6 -5 -1 -5 -18z"/>
<path d="M1076 63 c-4 -16 -9 -37 -13 -48 -3 -14 -2 -17 5 -10 11 11 28 85 19
85 -3 0 -8 -12 -11 -27z"/>
<path d="M1230 79 c-39 -8 -103 -70 -80 -77 7 -3 17 3 22 12 12 22 46 38 89
43 30 4 42 -1 70 -26 45 -42 61 -42 39 -1 -20 37 -87 60 -140 49z"/>
<path d="M1384 62 c16 -59 18 -64 28 -54 12 12 0 59 -19 66 -10 4 -13 1 -9
-12z"/>
<path d="M2110 15 c-10 -12 -10 -15 3 -15 9 0 19 4 22 10 9 14 68 13 83 -2 6
-6 15 -8 19 -4 13 13 -21 26 -68 26 -29 0 -51 -6 -59 -15z"/>
</g>
</svg>
